<svg version="1.1" xmlns="http://www.w3.org/2000/svg" xmlns:xlink="http://www.w3.org/1999/xlink" width="48" height="48"><defs><linearGradient x1="0" y1="0" x2="0" y2="0" gradientUnits="userSpaceOnUse" id="color-1"><stop offset="0" stop-color="#000000" stop-opacity="0.3"></stop><stop offset="1" stop-color="#000000" stop-opacity="0"></stop></linearGradient><filter id="dropshadow-base"><feColorMatrix type="matrix" values="0 0 0 0 0  0 0 0 0 0  0 0 0 0 0  0 0 0 .8 0"></feColorMatrix> <feOffset dx="0" dy="1"></feOffset> <feGaussianBlur stdDeviation="1"></feGaussianBlur> <feComposite in="SourceGraphic"></feComposite></filter><filter id="dropshadow-banner" x="-10%" y="-10%" width="120%" height="130%"><feColorMatrix type="matrix" values="0 0 0 0 0  0 0 0 0 0  0 0 0 0 0  0 0 0 .4 0"></feColorMatrix> <feOffset dx="0" dy="1"></feOffset> <feGaussianBlur stdDeviation="0.5"></feGaussianBlur> <feComposite in="SourceGraphic"></feComposite></filter></defs><g fill="none" fill-rule="nonzero" stroke="none" stroke-width="none" stroke-linecap="butt" stroke-linejoin="miter" stroke-miterlimit="10" stroke-dasharray="" stroke-dashoffset="0" font-family="none" font-weight="none" font-size="none" text-anchor="none" style="mix-blend-mode: normal"><path d="M2,24c0,-12.15026 9.84974,-22 22,-22c12.15026,0 22,9.84974 22,22c0,12.15026 -9.84974,22 -22,22c-12.15026,0 -22,-9.84974 -22,-22z" id="base 1 5" fill="#1a73e8" stroke-width="1"></path><path d="" fill="url(#color-1)" stroke-width="1"></path><path transform="translate(-8.47319,-8.47319) scale(1.35305,1.35305)" d="M14.40784,16.79192c-0.12536,-0.23782 -0.05626,-1.10124 1.1762,-1.80192c1.23246,-0.70068 3.35331,-1.65799 3.91011,-0.31283c0.5571,1.34516 1.50958,4.49582 1.77236,5.25885c0.10231,0.29754 0.3151,0.67989 0.54898,1.0512c-0.96866,-0.04545 -1.86589,0.14358 -2.64648,0.60225c-0.54701,0.32161 -1.00473,0.7598 -1.37992,1.28997c-0.05393,-0.19786 -0.10201,-0.3596 -0.13253,-0.42816c-0.10655,-0.23776 -0.7822,-1.6206 -1.55174,-2.7842c-0.76954,-1.1636 -1.57193,-2.6374 -1.69699,-2.87516zM19.71733,25.57214c0,0 -0.60679,-0.02496 -0.80072,-0.41902c0,0 -0.08767,-0.14393 -0.23776,-0.17511c-0.15044,-0.03118 -0.31283,-0.26894 -0.37554,-0.44405c-0.04449,-0.12476 -0.21572,-0.84103 -0.3492,-1.32993c0.37518,-0.53047 0.83291,-0.96836 1.37992,-1.28997c0.78059,-0.45868 1.67782,-0.6477 2.64648,-0.60225c0.3664,0.58213 0.78513,1.1363 0.91509,1.28896c0.21244,0.25042 0.08122,0.49439 0.08122,0.49439c0,0 0.36282,0.56947 -0.1566,1.0512c0,0 -0.35046,-0.81959 -1.98963,-0.14393c-1.63947,0.67565 -1.11325,1.56972 -1.11325,1.56972zM28.9241,31.49965c1.32796,0.61754 2.94987,0.3765 4.05757,1.50695c0.1686,0.17188 0.16406,0.49965 -0.09257,0.55388c-2.50129,0.52981 -3.51641,0.54994 -6.11188,0.22414c-1.16455,-0.1462 -1.59952,-0.67536 -1.18504,-0.63964c0.01362,0.00125 0.02729,0.00257 0.04091,0.00388l-1.85747,-4.19696c0.0906,-0.1345 0.09616,-0.3547 -0.00131,-0.56391c-0.1293,-0.27772 -0.39017,-0.43007 -0.58278,-0.34042c-0.19261,0.08965 -0.24397,0.38725 -0.11467,0.66496c0.08935,0.19165 0.24104,0.32096 0.38982,0.35506l1.94837,4.36359c0,0 -0.13127,0.10004 -0.31283,-0.16275c-0.18156,-0.26278 -1.54332,-1.95099 -3.21397,-2.43272c0,0 -0.28781,-0.08122 -0.35052,-0.25012l-1.78335,-5.25724c0,0 -0.07507,-0.64418 0.97612,-1.11355c1.01351,-0.45217 1.8331,-0.30632 2.03968,0.03769c0,0 1.55049,3.30851 2.82678,5.06039c0,0 0.12506,0.07537 0,0.90111c-0.12506,0.82604 -0.09777,1.18432 0.17183,2.83616c0,0 0.00747,0.051 -0.00096,0.11109c2.12055,0.19428 4.28368,0.59903 6.34576,-0.02144c-1.19543,-0.7705 -2.87516,-0.56618 -4.08844,-1.41467c-0.16794,-0.1176 -0.14847,-0.40672 0.01851,-0.51422c1.23538,-0.79558 2.96516,-0.88003 4.07967,-1.82205c1.59008,-1.3442 -0.97517,-2.07408 -1.8279,-2.93882c-0.44076,-0.44697 -0.49923,-0.93265 -0.07501,-1.38057c1.15189,-1.21621 3.41996,-2.2557 2.70626,-4.43084c-0.13062,-0.39758 0.15236,0.0221 0.28291,0.42004c0.41747,1.27176 0.15271,2.31901 -0.8556,3.22795c-0.59377,0.53536 -2.38757,1.36307 -1.00276,2.26156c0.53566,0.34759 1.20773,0.53632 1.70995,0.92906c2.1872,1.71061 -2.44766,3.31114 -4.13706,4.02245z" fill="none" stroke-width="0"></path><path d="M11.02133,14.24711c-0.16962,-0.32178 -0.07612,-1.49004 1.59145,-2.43809c1.66758,-0.94805 4.53719,-2.24334 5.29057,-0.42328c0.75379,1.82006 2.04253,6.08307 2.39809,7.11548c0.13843,0.40259 0.42635,0.91993 0.7428,1.42232c-1.31064,-0.0615 -2.52464,0.19427 -3.58081,0.81488c-0.74013,0.43516 -1.35945,1.02805 -1.86709,1.7454c-0.07297,-0.26772 -0.13802,-0.48655 -0.17932,-0.57932c-0.14416,-0.3217 -1.05836,-2.19275 -2.09958,-3.76716c-1.04123,-1.5744 -2.1269,-3.56853 -2.29611,-3.89023zM18.20534,26.12718c0,0 -0.82102,-0.03378 -1.08341,-0.56696c0,0 -0.11863,-0.19475 -0.3217,-0.23693c-0.20356,-0.04218 -0.42328,-0.36388 -0.50813,-0.60082c-0.0602,-0.16881 -0.29188,-1.13795 -0.47249,-1.79946c0.50764,-0.71775 1.12696,-1.31024 1.86709,-1.7454c1.05617,-0.62061 2.27017,-0.87637 3.58081,-0.81488c0.49576,0.78765 1.06232,1.53747 1.23816,1.74402c0.28744,0.33883 0.1099,0.66894 0.1099,0.66894c0,0 0.49092,0.77051 -0.21188,1.42232c0,0 -0.47419,-1.10894 -2.69207,-0.19475c-2.21829,0.91419 -1.50628,2.12391 -1.50628,2.12391zM30.66254,34.1474c1.79679,0.83557 3.99132,0.50942 5.49009,2.03898c0.22812,0.23257 0.22198,0.67605 -0.12525,0.74942c-3.38437,0.71686 -4.75788,0.74409 -8.26968,0.30328c-1.5757,-0.19782 -2.16423,-0.91379 -1.60341,-0.86547c0.01842,0.0017 0.03693,0.00347 0.05535,0.00525l-2.51324,-5.6787c0.12259,-0.18198 0.1301,-0.47993 -0.00178,-0.763c-0.17495,-0.37576 -0.52793,-0.58191 -0.78854,-0.46061c-0.26061,0.12129 -0.33011,0.52397 -0.15515,0.89973c0.12089,0.25932 0.32615,0.43427 0.52744,0.48041l2.63624,5.90415c0,0 -0.17762,0.13536 -0.42328,-0.2202c-0.24566,-0.35556 -2.08819,-2.63979 -4.34866,-3.2916c0,0 -0.38942,-0.1099 -0.47427,-0.33843l-2.41296,-7.1133c0,0 -0.10158,-0.87161 1.32074,-1.50669c1.37133,-0.61181 2.48027,-0.41447 2.75979,0.05099c0,0 2.09788,4.47658 3.82478,6.84695c0,0 0.16921,0.10198 0,1.21925c-0.16921,1.11767 -0.13228,1.60244 0.23249,3.83746c0,0 0.0101,0.06901 -0.00129,0.1503c2.86921,0.26287 5.79603,0.81052 8.58613,-0.02901c-1.61747,-1.04252 -3.89023,-0.76607 -5.53187,-1.91412c-0.22724,-0.15911 -0.20089,-0.55031 0.02505,-0.69577c1.67154,-1.07646 4.01201,-1.19072 5.51999,-2.46532c2.15146,-1.81877 -1.31945,-2.80634 -2.47324,-3.97637c-0.59637,-0.60478 -0.67548,-1.26191 -0.1015,-1.86798c1.55856,-1.6456 4.62737,-3.05208 3.6617,-5.99515c-0.17673,-0.53795 0.20614,0.0299 0.38279,0.56833c0.56486,1.72075 0.20663,3.13774 -1.15767,4.36757c-0.8034,0.72437 -3.23051,1.84431 -1.35678,3.06c0.72478,0.47031 1.63412,0.72567 2.31365,1.25707c2.95939,2.31453 -3.3118,4.48014 -5.59765,5.44257z" fill="#ffffff" stroke-width="0"></path><path d="M2,24c0,-12.15026 9.84974,-22 22,-22c12.15026,0 22,9.84974 22,22c0,12.15026 -9.84974,22 -22,22c-12.15026,0 -22,-9.84974 -22,-22z" id="base 1 1 1" fill="none" stroke-width="1"></path><g id="Capa_1 1 1" fill="#000000" stroke-width="1" font-family="Roboto, sans-serif" font-weight="400" font-size="14" text-anchor="start"><g></g><g></g><g></g><g></g><g></g><g></g><g></g><g></g><g></g><g></g><g></g><g></g><g></g><g></g><g></g><g></g></g><rect x="2" y="2" width="44" height="22" fill="none" stroke-width="1"></rect><path d="M2,24v-22h44v22z" fill="none" stroke-width="1"></path><path d="M2,24v-22h44v22z" fill="none" stroke-width="1"></path><path d="M2,24v-22h44v22z" fill="none" stroke-width="1"></path><path d="M2,24v-22h44v22z" fill="none" stroke-width="1"></path></g></svg>